<svg xmlns="http://www.w3.org/2000/svg" version="1.1" xmlns:xlink="http://www.w3.org/1999/xlink" xmlns:svgjs="http://svgjs.com/svgjs" width="512" height="512" x="0" y="0" viewBox="0 0 469.333 469.333" style="enable-background:new 0 0 512 512" xml:space="preserve" class=""><g><path d="M352 42.667c-6.464 0-13.219.855-20.234 2.158C308.273 17.439 273.496 0 234.667 0s-73.607 17.439-97.099 44.824c-7.016-1.302-13.771-2.158-20.234-2.158C52.635 42.667 0 95.302 0 160c0 44.333 25 84.635 64.25 104.563l-.208 161.197c-.01 11.635 4.51 22.573 12.729 30.802 8.229 8.24 19.156 12.771 30.792 12.771h254.25c24 0 43.521-19.521 43.521-43.521V264.406c39.104-19.979 64-60.219 64-104.406C469.333 95.302 416.698 42.667 352 42.667z" style="" fill="#333333" data-original="#303c42" class=""></path><path d="M361.813 448h-254.25c-5.927 0-11.5-2.313-15.698-6.51-4.188-4.198-6.5-9.771-6.49-15.708L85.43 384H384v41.813c0 12.229-9.958 22.187-22.187 22.187z" style="" fill="#72c2cd" data-original="#e6e6e6" class=""></path><path d="m106.708 425.781.047-41.781H85.43l-.055 41.781c-.01 5.938 2.302 11.51 6.49 15.708 4.198 4.198 9.771 6.51 15.698 6.51h18.163c-5.079 0-9.857-2.313-13.454-6.51-3.591-4.197-5.573-9.77-5.564-15.708z" style="opacity:0.2;enable-background:new ;" fill="#ffffff" data-original="#ffffff" class=""></path><path d="M362.667 384v41.813c0 12.229-8.535 22.188-19.017 22.188h18.163c12.229 0 22.188-9.958 22.188-22.188V384h-21.334z" style="opacity:0.1;enable-background:new ;" fill="#333333" data-original="#000000" class=""></path><path d="M390.604 247.802c-.563.229-1.094.5-1.594.823a10.464 10.464 0 0 0-3.271 3.208 10.527 10.527 0 0 0-1.625 4.281 10.312 10.312 0 0 0-.115 1.792v104.76H85.457l.137-104.615a10.69 10.69 0 0 0-4.959-9.261 11.165 11.165 0 0 0-1.677-.865c-35.01-15.31-57.625-49.79-57.625-87.925 0-52.938 43.063-96 96-96 2.069 0 4.253.25 6.396.419-10.792 18.757-17.063 40.43-17.063 63.581 0 5.896 4.771 10.667 10.667 10.667S128 133.896 128 128c0-58.813 47.854-106.667 106.667-106.667S341.333 69.188 341.333 128A10.66 10.66 0 0 0 352 138.667 10.66 10.66 0 0 0 362.667 128c0-23.151-6.271-44.824-17.063-63.581C347.747 64.25 349.931 64 352 64c52.938 0 96 43.063 96 96 0 38-22.521 72.438-57.396 87.802z" style="" fill="#f0f0f0" data-original="#f2f2f2" class=""></path><path d="M234.667 34.667c48.971 0 90.135 31.029 104.672 73.604-9.301-49.398-52.615-86.938-104.672-86.938s-95.371 37.539-104.672 86.938c14.536-42.576 55.7-73.604 104.672-73.604z" style="opacity:0.2;enable-background:new ;" fill="#ffffff" data-original="#ffffff" class=""></path><path d="M352 64c-2.069 0-4.253.25-6.396.419.078.137.132.288.21.424 43.318 4.306 77.52 45.077 77.52 95.156 0 38-19.917 72.438-50.759 87.802-.497.229-.967.5-1.41.823-1.188.833-2.164 1.938-2.892 3.208a11.412 11.412 0 0 0-1.438 4.281 11.637 11.637 0 0 0-.102 1.792v104.76H384v-104.76c-.01-.604.021-1.198.115-1.792a10.522 10.522 0 0 1 1.625-4.281 10.453 10.453 0 0 1 3.271-3.208 9.562 9.562 0 0 1 1.594-.823C425.479 232.438 448 198 448 160c0-52.937-43.062-96-96-96z" style="opacity:0.1;enable-background:new ;" fill="#333333" data-original="#000000" class=""></path><path d="M102.738 256.302a11.585 11.585 0 0 0-1.492-4.417c-.719-1.219-1.659-2.281-2.801-3.094a9.511 9.511 0 0 0-1.483-.865C66 232.615 46 198.135 46 160c0-50.079 34.202-90.85 77.52-95.156.078-.137.132-.288.21-.424-2.144-.17-4.328-.42-6.397-.42-52.938 0-96 43.063-96 96 0 38.135 22.615 72.615 57.625 87.927.583.24 1.146.531 1.677.865a10.569 10.569 0 0 1 3.167 3.094 10.704 10.704 0 0 1 1.792 6.167l-.137 104.615h17.253l.121-104.615a12.15 12.15 0 0 0-.093-1.751z" style="opacity:0.2;enable-background:new ;" fill="#ffffff" data-original="#ffffff" class=""></path><path d="M128 224c0-5.896-4.771-10.667-10.667-10.667s-10.667 4.771-10.667 10.667c0 28.01 30.896 66.469 34.417 70.771a10.69 10.69 0 0 0 15.02 1.479c4.552-3.74 5.208-10.458 1.479-15.021C146.146 267.292 128 239.438 128 224zM352 213.333A10.66 10.66 0 0 0 341.333 224c0 15.385-18.146 43.271-29.583 57.24-3.729 4.552-3.063 11.271 1.49 15.01a10.617 10.617 0 0 0 6.76 2.417 10.67 10.67 0 0 0 8.25-3.896c3.521-4.302 34.417-42.76 34.417-70.771A10.66 10.66 0 0 0 352 213.333zM234.667 213.333A10.66 10.66 0 0 0 224 224v64c0 5.896 4.771 10.667 10.667 10.667s10.667-4.771 10.667-10.667v-64a10.662 10.662 0 0 0-10.667-10.667z" style="" fill="#333333" data-original="#303c42" class=""></path><linearGradient id="a" x1="-67.235" x2="-46.216" y1="617.444" y2="607.643" gradientTransform="matrix(21.3333 0 0 -21.3333 1430.111 13315.223)" gradientUnits="userSpaceOnUse"><stop offset="0" style="stop-color:#FFFFFF;stop-opacity:0.2"></stop><stop offset="1" style="stop-color:#FFFFFF;stop-opacity:0"></stop></linearGradient><path d="M352 42.667c-6.464 0-13.219.855-20.234 2.158C308.273 17.439 273.496 0 234.667 0s-73.607 17.439-97.099 44.824c-7.016-1.302-13.771-2.158-20.234-2.158C52.635 42.667 0 95.302 0 160c0 44.333 25 84.635 64.25 104.563l-.208 161.197c-.01 11.635 4.51 22.573 12.729 30.802 8.229 8.24 19.156 12.771 30.792 12.771h254.25c24 0 43.521-19.521 43.521-43.521V264.406c39.104-19.979 64-60.219 64-104.406C469.333 95.302 416.698 42.667 352 42.667z" style="fill:url(#a);" fill=""></path></g></svg>